<?xml version="1.0" encoding="utf-8"?>
<!-- Generator: Adobe Illustrator 16.0.0, SVG Export Plug-In . SVG Version: 6.00 Build 0)  -->
<!DOCTYPE svg PUBLIC "-//W3C//DTD SVG 1.1//EN" "http://www.w3.org/Graphics/SVG/1.1/DTD/svg11.dtd">
<svg version="1.1" id="Layer_1" xmlns="http://www.w3.org/2000/svg" xmlns:xlink="http://www.w3.org/1999/xlink" x="0px" y="0px"
	 width="100px" height="20px" viewBox="0 0 100 20" enable-background="new 0 0 100 20" xml:space="preserve">
<path d="M0,10.005c0-5.447,4.417-9.863,9.863-9.863l0,0c0.007,0,22.925,0,22.925,0v0.01c5.242,0.229,9.424,4.551,9.424,9.854l0,0
	c0,5.446-4.409,9.86-9.856,9.86l0,0H9.863C4.417,19.865,0,15.451,0,10.005L0,10.005z M1.958,10.005c0,2.187,0.884,4.159,2.314,5.593
	l0,0c1.436,1.432,3.403,2.311,5.591,2.311l0,0h22.493c4.36,0,7.9-3.535,7.9-7.903l0,0l0,0l0,0l0,0l0,0l0,0
	c0-4.365-3.535-7.9-7.896-7.905l0,0c-0.146,0-22.495,0-22.498,0l0,0c-2.188,0-4.155,0.881-5.591,2.314l0,0l0,0
	C2.842,5.85,1.958,7.817,1.958,10.005L1.958,10.005z"/>
<circle cx="32.188" cy="10.008" r="6.104"/>
<path d="M56.131,12.807l-0.955-2.65h-3.652l-0.933,2.65h-1.646l3.572-9.589h1.703l3.572,9.589H56.131z M54.766,8.809l-0.9-2.6
	c-0.062-0.173-0.152-0.449-0.27-0.823c-0.109-0.371-0.195-0.647-0.231-0.823c-0.122,0.537-0.293,1.123-0.521,1.76l-0.861,2.485
	H54.766L54.766,8.809z"/>
<path d="M61.763,12.807h-1.56V4.595h-2.812v-1.34h7.18v1.34h-2.808V12.807z"/>
<path d="M66.04,12.807V3.254h1.558v8.214h4.043v1.342H66.04V12.807z"/>
<path d="M78.687,12.807h-5.4V3.254h5.4v1.321h-3.838v2.6h3.604v1.311h-3.604v2.996h3.838V12.807z"/>
<path d="M84.414,12.807h-1.558V4.595h-2.808v-1.34h7.178v1.34h-2.812V12.807z"/>
<path d="M88.691,12.807V3.254h1.558v9.552H88.691z"/>
<path d="M99.883,12.807h-1.812l-3.003-4.32L94.15,9.233v3.573h-1.558V3.254h1.558v4.563c0.43-0.522,0.859-1.028,1.274-1.509
	l2.583-3.054h1.777c-1.67,1.96-2.861,3.359-3.589,4.192L99.883,12.807z"/>
<path d="M51.008,19.09h-2.001v-3.541h2.001v0.488h-1.423v0.967h1.335v0.475h-1.335v1.113h1.423V19.09z"/>
<path d="M54.795,19.09h-0.672l-1.107-1.611l-0.342,0.283v1.328h-0.579v-3.541h0.579v1.686c0.158-0.195,0.316-0.377,0.473-0.562
	l0.957-1.123h0.654c-0.609,0.719-1.057,1.24-1.325,1.553L54.795,19.09z"/>
<path d="M57.627,18.127c0,0.312-0.115,0.562-0.342,0.742c-0.227,0.176-0.545,0.264-0.942,0.264c-0.403,0-0.728-0.062-0.983-0.186
	v-0.551c0.158,0.082,0.329,0.141,0.512,0.186c0.184,0.043,0.357,0.059,0.516,0.059c0.225,0,0.391-0.035,0.5-0.123
	c0.11-0.088,0.166-0.205,0.166-0.352c0-0.137-0.049-0.244-0.153-0.342c-0.098-0.088-0.306-0.199-0.618-0.326
	c-0.324-0.127-0.549-0.279-0.684-0.445c-0.129-0.17-0.202-0.365-0.202-0.605c0-0.303,0.11-0.531,0.317-0.703
	c0.207-0.166,0.49-0.254,0.845-0.254c0.342,0,0.679,0.074,1.016,0.23l-0.183,0.469c-0.32-0.133-0.602-0.201-0.846-0.201
	c-0.183,0-0.329,0.045-0.427,0.123c-0.101,0.082-0.149,0.189-0.149,0.322c0,0.092,0.025,0.17,0.062,0.238
	c0.036,0.064,0.104,0.123,0.198,0.186c0.085,0.059,0.244,0.133,0.476,0.23c0.257,0.111,0.452,0.209,0.569,0.307
	c0.121,0.084,0.215,0.195,0.268,0.312C57.598,17.824,57.627,17.971,57.627,18.127z"/>
<path d="M60.975,16.613c0,0.371-0.123,0.66-0.361,0.855c-0.24,0.195-0.586,0.293-1.033,0.293h-0.369v1.322h-0.58v-3.535h1.022
	c0.439,0,0.769,0.084,0.991,0.27C60.864,15.998,60.975,16.262,60.975,16.613z M59.211,17.273h0.309c0.293,0,0.512-0.049,0.654-0.152
	c0.139-0.107,0.207-0.264,0.207-0.482c0-0.211-0.061-0.357-0.19-0.455c-0.122-0.102-0.317-0.16-0.573-0.16h-0.406V17.273
	L59.211,17.273z"/>
<path d="M64.009,19.09h-2.007v-3.541h2.007v0.488h-1.426v0.967h1.333v0.475h-1.333v1.113h1.426V19.09z"/>
<path d="M65.674,17.678v1.412h-0.581v-3.541h0.996c0.464,0,0.796,0.084,1.016,0.254c0.22,0.172,0.327,0.43,0.327,0.771
	c0,0.439-0.229,0.758-0.684,0.943l0.996,1.572H67.09l-0.85-1.412H65.674L65.674,17.678z M65.674,17.195h0.396
	c0.273,0,0.469-0.059,0.586-0.156c0.122-0.098,0.186-0.244,0.186-0.439c0-0.211-0.068-0.348-0.195-0.436
	c-0.132-0.092-0.332-0.127-0.596-0.127h-0.376V17.195z"/>
<path d="M68.584,19.09v-3.541h0.576v3.541H68.584z"/>
<path d="M71.948,19.09l-1.03-2.959h-0.024c0.024,0.439,0.044,0.85,0.044,1.234v1.725H70.41v-3.541h0.815l0.991,2.812h0.015
	l1.006-2.812h0.82v3.541h-0.557v-1.758c0-0.172,0-0.4,0.015-0.684c0.01-0.283,0.015-0.455,0.024-0.514h-0.02l-1.064,2.955H71.948z"
	/>
<path d="M77.319,19.09h-2.007v-3.541h2.007v0.488h-1.431v0.967h1.333v0.475h-1.333v1.113h1.431V19.09z"/>
<path d="M81.348,19.09H80.64l-1.743-2.822h-0.02l0.015,0.156c0.02,0.297,0.029,0.57,0.029,0.824v1.842h-0.527v-3.541h0.703
	l1.743,2.809h0.015c-0.005-0.039-0.015-0.182-0.024-0.41c-0.005-0.234-0.015-0.42-0.015-0.547v-1.852h0.532V19.09L81.348,19.09z"/>
<path d="M83.828,19.09h-0.581v-3.047h-1.05v-0.494h2.671v0.494h-1.04V19.09L83.828,19.09z"/>
<path d="M87.925,19.09l-0.356-0.986h-1.348l-0.352,0.986h-0.61l1.328-3.561h0.63l1.328,3.561H87.925z M87.422,17.6l-0.337-0.961
	c-0.024-0.064-0.054-0.162-0.098-0.309c-0.039-0.137-0.073-0.234-0.088-0.297c-0.044,0.199-0.107,0.414-0.19,0.654L86.382,17.6
	H87.422L87.422,17.6z"/>
<path d="M89.907,17.678v1.412h-0.581v-3.541h1.001c0.459,0,0.796,0.084,1.016,0.254c0.22,0.172,0.332,0.43,0.332,0.771
	c0,0.439-0.234,0.758-0.693,0.943l1.006,1.572h-0.659l-0.845-1.412H89.907L89.907,17.678z M89.907,17.195h0.405
	c0.269,0,0.464-0.059,0.586-0.156s0.181-0.244,0.181-0.439c0-0.211-0.063-0.348-0.2-0.436c-0.127-0.092-0.322-0.127-0.591-0.127
	h-0.381V17.195z"/>
<path d="M92.817,19.09v-3.541h0.576v3.541H92.817z"/>
<path d="M96.655,19.09h-2.002v-3.541h2.002v0.488h-1.426v0.967h1.333v0.475h-1.333v1.113h1.426V19.09z"/>
<path d="M98.96,19.09h-0.576v-3.047h-1.045v-0.494H100v0.494h-1.04V19.09L98.96,19.09z"/>
</svg>
