<?xml version="1.0" encoding="utf-8"?>
<!-- Generator: Adobe Illustrator 13.0.0, SVG Export Plug-In . SVG Version: 6.00 Build 14948)  -->
<!DOCTYPE svg PUBLIC "-//W3C//DTD SVG 1.1//EN" "http://www.w3.org/Graphics/SVG/1.1/DTD/svg11.dtd">
<svg version="1.1" id="Layer_1" xmlns="http://www.w3.org/2000/svg" xmlns:xlink="http://www.w3.org/1999/xlink" x="0px" y="0px"
	 width="47.625px" height="47.625px" viewBox="0 0 47.625 47.625" enable-background="new 0 0 47.625 47.625" xml:space="preserve">
<g opacity="0.6">
	<circle fill="#1EEDC0" cx="23.812" cy="23.813" r="23.438"/>
	<path fill="#3FFFFB" d="M0,23.813C0,10.659,10.662,0,23.813,0l0,0c13.148,0,23.81,10.659,23.812,23.813l0,0
		c-0.002,13.15-10.663,23.811-23.812,23.811l0,0C10.662,47.625,0,36.963,0,23.813L0,23.813z M0.75,23.813
		c0.023,12.736,10.326,23.039,23.063,23.061l0,0c12.733-0.022,23.038-10.325,23.062-23.061l0,0
		C46.852,11.074,36.547,0.773,23.813,0.75l0,0C11.076,0.773,0.773,11.074,0.75,23.813L0.75,23.813z"/>
</g>
<g opacity="0.6">
	<circle fill="#1EEDC0" cx="23.814" cy="23.813" r="15.98"/>
	<path fill="#3FFFFB" d="M7.458,23.812c0-9.033,7.323-16.354,16.355-16.354l0,0c9.032,0,16.354,7.321,16.355,16.354l0,0
		c-0.002,9.033-7.323,16.353-16.355,16.355l0,0C14.781,40.166,7.458,32.845,7.458,23.812L7.458,23.812z M8.209,23.812
		c0.015,8.616,6.985,15.589,15.604,15.603l0,0c8.618-0.014,15.589-6.987,15.604-15.603l0,0c-0.015-8.619-6.985-15.59-15.604-15.604
		l0,0C15.195,8.223,8.224,15.193,8.209,23.812L8.209,23.812z"/>
</g>
<g opacity="0.75">
	<circle fill="#FFF91A" cx="23.814" cy="23.813" r="8.167"/>
	<path fill="#3FFFFB" d="M15.27,23.812c0.002-4.717,3.826-8.542,8.544-8.542l0,0c4.717,0,8.54,3.826,8.542,8.542l0,0h-0.002
		c0,4.719-3.823,8.543-8.54,8.545l0,0C19.096,32.355,15.272,28.531,15.27,23.812L15.27,23.812z M16.021,23.812
		c0.008,4.306,3.488,7.787,7.793,7.793l0,0c4.303-0.006,7.783-3.487,7.791-7.793l0,0c-0.008-4.303-3.488-7.785-7.791-7.791l0,0
		C19.509,16.027,16.029,19.509,16.021,23.812L16.021,23.812z"/>
</g>
</svg>
